#!OML:ASF H:\MichaelJackson\Top Level 1\Subject 1\Session 1\male.ASF
:FULLY-SPECIFIED
:DEGREES
1148
root -0.994392 14.992 43.6881 7.23277 -1.8936 3.39218
lowerback -1.69927 -0.641694 -1.70184
upperback -1.78032 -0.876663 -5.4158
thorax -0.938083 -0.458097 -4.63972
lowerneck -6.09502 0.543525 5.84957
upperneck -1.43741 0.314069 2.85893
head 0.566331 0.16683 -0.0796434
rclavicle -1.21259e-014 -3.02153e-014
rhumerus 2.13397 -20.4742 4.64187
rradius 23.2642
rwrist -2.69717
rhand -24.9333 -39.6273
rfingers 7.12502
rthumb 1.57602 290.399
lclavicle -1.21259e-014 -3.02153e-014
lhumerus -58.2241 -37.7535 112.986
lradius 54.7441
lwrist 20.6332
lhand 39.6959 24.583
lfingers 7.12502
lthumb 62.1426 35.8981
rfemur -33.4552 -23.8854 -4.35584
rtibia 57.5863
rfoot -27.2916 18.6352
rtoes -23.8742
lfemur 2.45266 -26.9525 0.735912
ltibia 16.2345
lfoot -25.3439 23.96
ltoes -27.7383
1149
root -0.994951 14.9924 43.6872 7.21634 -1.89706 3.39109
lowerback -1.6781 -0.645795 -1.72536
upperback -1.77178 -0.882495 -5.41302
thorax -0.941155 -0.460679 -4.62327
lowerneck -6.09642 0.544474 5.86053
upperneck -1.407 0.313264 2.84662
head 0.57617 0.167205 -0.0853111
rclavicle -1.09332e-015 1.74931e-014
rhumerus 2.13001 -20.4109 4.63371
rradius 23.2688
rwrist -2.70561
rhand -24.9503 -39.6604
rfingers 7.12502
rthumb 1.55955 290.366
lclavicle -1.09332e-015 1.74931e-014
lhumerus -58.2159 -37.7577 112.987
lradius 54.7412
lwrist 20.6401
lhand 39.6929 24.5831
lfingers 7.12502
lthumb 62.1402 35.9014
rfemur -33.4504 -23.8698 -4.35777
rtibia 57.5904
rfoot -27.2594 18.6596
rtoes -23.7589
lfemur 2.47372 -26.9227 0.737998
ltibia 16.2121
lfoot -25.3296 23.9316
ltoes -27.7535
1150
root -0.995539 14.9931 43.6865 7.20222 -1.90147 3.38687
lowerback -1.65807 -0.648949 -1.7442
upperback -1.76508 -0.887164 -5.41061
thorax -0.945485 -0.462756 -4.60987
lowerneck -6.09593 0.543493 5.86933
upperneck -1.37633 0.31015 2.83801
head 0.585714 0.166468 -0.0895391
rclavicle -1.51076e-014 -2.54444e-014
rhumerus 2.12627 -20.3558 4.62161
rradius 23.2732
rwrist -2.70706
rhand -24.9581 -39.6864
rfingers 7.12502
rthumb 1.55204 290.34
lclavicle -1.51076e-014 -2.54444e-014
lhumerus -58.2073 -37.7615 112.988
lradius 54.7347
lwrist 20.6487
lhand 39.6933 24.5849
lfingers 7.12502
lthumb 62.1404 35.9029
rfemur -33.4501 -23.8552 -4.35275
rtibia 57.594
rfoot -27.2286 18.6846
rtoes -23.6581
lfemur 2.49747 -26.8872 0.744357
ltibia 16.1785
lfoot -25.307 23.9036
ltoes -27.7731
1151
root -0.996028 14.9941 43.6857 7.19228 -1.90733 3.37996
lowerback -1.64139 -0.650581 -1.75869
upperback -1.7611 -0.889827 -5.40789
thorax -0.950652 -0.463895 -4.59862
lowerneck -6.08732 0.541147 5.87577
upperneck -1.35155 0.306245 2.83157
head 0.592028 0.165113 -0.092716
rclavicle 1.0138e-014 3.33958e-014
rhumerus 2.12376 -20.3155 4.60532
rradius 23.2769
rwrist -2.69731
rhand -24.9554 -39.6875
rfingers 7.12502
rthumb 1.55468 290.338
lclavicle 1.0138e-014 3.33958e-014
lhumerus -58.1993 -37.7634 112.99
lradius 54.7253
lwrist 20.6565
lhand 39.6985 24.5858
lfingers 7.12502
lthumb 62.1448 35.8982
rfemur -33.457 -23.8433 -4.34144
rtibia 57.5977
rfoot -27.1954 18.7115
rtoes -23.5547
lfemur 2.52106 -26.8552 0.752992
ltibia 16.139
lfoot -25.2768 23.8857
ltoes -27.8
1152
root -0.99637 14.9952 43.685 7.18696 -1.91732 3.37378
lowerback -1.63041 -0.650563 -1.77169
upperback -1.75956 -0.89016 -5.4062
thorax -0.955018 -0.463907 -4.58934
lowerneck -6.07287 0.538157 5.88105
upperneck -1.33199 0.302223 2.82763
head 0.595702 0.163517 -0.0949236
rclavicle -9.39258e-015 -2.06736e-014
rhumerus 2.12486 -20.2909 4.58314
rradius 23.2777
rwrist -2.67768
rhand -24.948 -39.6766
rfingers 7.12502
rthumb 1.56178 290.349
lclavicle -9.39258e-015 -2.06736e-014
lhumerus -58.1922 -37.762 112.991
lradius 54.7162
lwrist 20.6627
lhand 39.7061 24.5907
lfingers 7.12502
lthumb 62.1511 35.8951
rfemur -33.4723 -23.833 -4.32816
rtibia 57.6015
rfoot -27.1609 18.7402
rtoes -23.4631
lfemur 2.54313 -26.8315 0.75765
ltibia 16.1014
lfoot -25.247 23.8825
ltoes -27.833
1153
root -0.996541 14.9961 43.6841 7.18548 -1.93202 3.36791
lowerback -1.62024 -0.648864 -1.78331
upperback -1.76139 -0.888421 -5.40497
thorax -0.962301 -0.462934 -4.58131
lowerneck -6.05416 0.533866 5.88111
upperneck -1.3137 0.297158 2.82979
head 0.598208 0.16141 -0.0944136
rclavicle 1.32689e-014 -6.36111e-015
rhumerus 2.13189 -20.2866 4.5541
rradius 23.2742
rwrist -2.64319
rhand -24.9345 -39.6446
rfingers 7.12502
rthumb 1.57478 290.381
lclavicle 1.32689e-014 -6.36111e-015
lhumerus -58.1866 -37.7566 112.991
lradius 54.7086
lwrist 20.6642
lhand 39.7209 24.596
lfingers 7.12502
lthumb 62.1634 35.8849
rfemur -33.4937 -23.8198 -4.31433
rtibia 57.6048
rfoot -27.124 18.7697
rtoes -23.3775
lfemur 2.55983 -26.8086 0.760653
ltibia 16.0733
lfoot -25.2191 23.8892
ltoes -27.8776
1154
root -0.996495 14.9967 43.683 7.18582 -1.95045 3.36439
lowerback -1.61152 -0.645523 -1.79432
upperback -1.76451 -0.884508 -5.40509
thorax -0.969978 -0.460899 -4.57506
lowerneck -6.03336 0.528528 5.87737
upperneck -1.29683 0.291146 2.83602
head 0.59987 0.158826 -0.092042
rclavicle -2.38542e-015 1.11319e-014
rhumerus 2.14035 -20.2921 4.52316
rradius 23.2682
rwrist -2.60634
rhand -24.9205 -39.6027
rfingers 7.12502
rthumb 1.58837 290.423
lclavicle -2.38542e-015 1.11319e-014
lhumerus -58.1826 -37.7494 112.992
lradius 54.7022
lwrist 20.6605
lhand 39.7381 24.6015
lfingers 7.12502
lthumb 62.1777 35.8723
rfemur -33.5144 -23.8032 -4.30454
rtibia 57.6054
rfoot -27.0998 18.7855
rtoes -23.3519
lfemur 2.57083 -26.7929 0.758933
ltibia 16.059
lfoot -25.2012 23.9041
ltoes -27.9162
1155
root -0.996294 14.9969 43.6818 7.18716 -1.97049 3.36157
lowerback -1.60087 -0.641248 -1.80299
upperback -1.76941 -0.879587 -5.40658
thorax -0.980578 -0.458419 -4.57152
lowerneck -6.01183 0.523035 5.87412
upperneck -1.2795 0.284929 2.84254
head 0.601554 0.15615 -0.0896625
rclavicle 3.52843e-015 3.18055e-014
rhumerus 2.15003 -20.3093 4.48862
rradius 23.26
rwrist -2.56052
rhand -24.9055 -39.5473
rfingers 7.12502
rthumb 1.60287 290.479
lclavicle 3.52843e-015 3.18055e-014
lhumerus -58.1838 -37.7439 112.996
lradius 54.699
lwrist 20.6534
lhand 39.7542 24.6081
lfingers 7.12502
lthumb 62.1912 35.8619
rfemur -33.5305 -23.782 -4.29825
rtibia 57.6011
rfoot -27.0931 18.7828
rtoes -23.4026
lfemur 2.57236 -26.772 0.757816
ltibia 16.0628
lfoot -25.1917 23.9191
ltoes -27.9641
